<svg xmlns="http://www.w3.org/2000/svg" width="1200" height="360" viewBox="0 0 1200 360" role="img" aria-labelledby="title desc">
  <title id="title">Taylor000 profile banner</title>
  <desc id="desc">A cute cream and blush banner with a bow, a smiling heart on a laptop, flowers, and the words Taylor000, code, create, little joys.</desc>

  <defs>
    <linearGradient id="background" x1="0" y1="0" x2="1" y2="1">
      <stop offset="0" stop-color="#fff9f3"/>
      <stop offset="0.52" stop-color="#ffeff6"/>
      <stop offset="1" stop-color="#f5efff"/>
    </linearGradient>
    <linearGradient id="screen" x1="0" y1="0" x2="1" y2="1">
      <stop offset="0" stop-color="#987386"/>
      <stop offset="1" stop-color="#705b78"/>
    </linearGradient>
    <filter id="shadow" x="-20%" y="-20%" width="140%" height="160%">
      <feDropShadow dx="0" dy="10" stdDeviation="12" flood-color="#8c6879" flood-opacity="0.12"/>
    </filter>
  </defs>

  <rect x="1" y="1" width="1198" height="358" rx="28" fill="url(#background)" stroke="#eccfdc" stroke-width="2"/>

  <circle cx="1035" cy="85" r="72" fill="#e9ddff" opacity="0.5"/>
  <circle cx="1110" cy="250" r="105" fill="#fbd7e7" opacity="0.5"/>
  <circle cx="95" cy="300" r="70" fill="#e3f2ed" opacity="0.42"/>
  <path d="M0 292 C180 250 270 340 456 302 C656 261 756 323 930 300 C1042 285 1120 300 1200 325 L1200 360 L0 360 Z" fill="#ffffff" opacity="0.56"/>

  <g fill="none" stroke="#c9aebe" stroke-width="2" stroke-linecap="round" opacity="0.75">
    <path d="M95 78v18M86 87h18"/>
    <path d="M1002 265v18M993 274h18"/>
    <path d="M1058 45v12M1052 51h12"/>
  </g>
  <g fill="#d9b4c6">
    <circle cx="160" cy="58" r="3"/>
    <circle cx="1092" cy="124" r="3"/>
    <circle cx="1012" cy="198" r="2.5"/>
  </g>

  <g transform="translate(76 48)" filter="url(#shadow)">
    <path d="M0 17C11 1 27 1 35 15L26 31C14 30 5 25 0 17Z" fill="#f1b7cf"/>
    <path d="M70 17C59 1 43 1 35 15L44 31C56 30 65 25 70 17Z" fill="#e7b9e9"/>
    <circle cx="35" cy="18" r="10" fill="#f7d5a9"/>
    <path d="M29 26L20 46L36 37L51 46L42 26Z" fill="#efc4d8" opacity="0.9"/>
  </g>

  <g transform="translate(114 102)" filter="url(#shadow)">
    <rect x="0" y="0" width="250" height="158" rx="16" fill="#fffdfd" stroke="#d9c5d1" stroke-width="4"/>
    <rect x="14" y="14" width="222" height="128" rx="9" fill="url(#screen)"/>
    <circle cx="125" cy="7" r="2.5" fill="#bca2b1"/>
    <path d="M-22 160 H272 L247 185 H3 Z" fill="#f0e7ed" stroke="#d9c5d1" stroke-width="4" stroke-linejoin="round"/>
    <path d="M102 161h46l-8 10h-30z" fill="#d7c6d0"/>

    <g fill="none" stroke-linecap="round" stroke-linejoin="round">
      <path d="M67 58l-16 16 16 16" stroke="#f5c7d9" stroke-width="7"/>
      <path d="M183 58l16 16-16 16" stroke="#d9cef2" stroke-width="7"/>
      <path d="M143 45l-33 59" stroke="#e8dfb7" stroke-width="7"/>
    </g>
    <path d="M125 116c-15-10-29-21-29-35 0-10 7-17 17-17 6 0 10 3 12 7 3-4 7-7 13-7 10 0 17 7 17 17 0 14-15 25-30 35z" fill="#f4b6cf" opacity="0.96"/>
    <circle cx="116" cy="82" r="2.5" fill="#765567"/>
    <circle cx="134" cy="82" r="2.5" fill="#765567"/>
    <path d="M119 91c4 4 8 4 12 0" fill="none" stroke="#765567" stroke-width="2.5" stroke-linecap="round"/>
    <circle cx="108" cy="89" r="4" fill="#ffd7df" opacity="0.85"/>
    <circle cx="142" cy="89" r="4" fill="#ffd7df" opacity="0.85"/>
  </g>

  <g transform="translate(446 94)">
    <text x="0" y="66" fill="#644d5b" font-family="Inter, ui-sans-serif, system-ui, -apple-system, BlinkMacSystemFont, 'Segoe UI', sans-serif" font-size="68" font-weight="700" letter-spacing="-1">Taylor000</text>
    <rect x="2" y="88" width="94" height="5" rx="2.5" fill="#eeabc6"/>
    <rect x="104" y="88" width="36" height="5" rx="2.5" fill="#cbbce9"/>
    <text x="0" y="138" fill="#886f7c" font-family="Inter, ui-sans-serif, system-ui, -apple-system, BlinkMacSystemFont, 'Segoe UI', sans-serif" font-size="23" font-weight="500" letter-spacing="1.3">CODE · CREATE · LITTLE JOYS</text>
  </g>

  <g fill="#e6a8c1" opacity="0.92">
    <path d="M853 94c-8-6-15-12-15-20 0-6 4-10 10-10 4 0 6 2 8 5 2-3 4-5 8-5 6 0 10 4 10 10 0 8-7 14-15 20z"/>
    <path d="M910 170c-5-4-10-8-10-13 0-4 3-7 7-7 2 0 4 2 5 3 1-1 3-3 5-3 4 0 7 3 7 7 0 5-5 9-10 13z" opacity="0.7"/>
  </g>

  <g transform="translate(1060 164)">
    <path d="M24 84c-3-31 1-53 22-76M41 60c14-10 25-10 34-4M35 40c-12-9-23-10-33-4" fill="none" stroke="#7e9a8d" stroke-width="4" stroke-linecap="round"/>
    <g transform="translate(46 7)">
      <ellipse rx="11" ry="22" fill="#f0bfd2" transform="rotate(0) translate(0 -15)"/>
      <ellipse rx="11" ry="22" fill="#f0bfd2" transform="rotate(72) translate(0 -15)"/>
      <ellipse rx="11" ry="22" fill="#f0bfd2" transform="rotate(144) translate(0 -15)"/>
      <ellipse rx="11" ry="22" fill="#f0bfd2" transform="rotate(216) translate(0 -15)"/>
      <ellipse rx="11" ry="22" fill="#f0bfd2" transform="rotate(288) translate(0 -15)"/>
      <circle r="9" fill="#f4df9f"/>
    </g>
    <path d="M42 62c12-14 26-14 37-7-9 13-22 17-37 7z" fill="#a9c7b8"/>
    <path d="M35 42C22 27 9 29 0 37c10 12 22 14 35 5z" fill="#bad3c7"/>
  </g>
</svg>
